<svg id="Layer_1" data-name="Layer 1" xmlns="http://www.w3.org/2000/svg" viewBox="0 0 512 512"><defs><style>.cls-1{fill:#141f38;}</style></defs><title>browser-3-glyph</title><path class="cls-1" d="M448,0H64A64,64,0,0,0,0,64v51.2H512V64A64,64,0,0,0,448,0ZM70.4,76.8A19.2,19.2,0,1,1,89.6,57.6,19.2,19.2,0,0,1,70.4,76.8Zm51.2,0a19.2,19.2,0,1,1,19.2-19.2A19.2,19.2,0,0,1,121.6,76.8Zm51.2,0A19.2,19.2,0,1,1,192,57.6,19.2,19.2,0,0,1,172.8,76.8ZM0,448a64,64,0,0,0,64,64H448a64,64,0,0,0,64-64V140.8H0ZM294.4,192H435.2a12.8,12.8,0,1,1,0,25.6H294.4a12.8,12.8,0,1,1,0-25.6Zm0,51.2H435.2a12.8,12.8,0,1,1,0,25.6H294.4a12.8,12.8,0,1,1,0-25.6Zm0,51.2H384a12.8,12.8,0,0,1,0,25.6H294.4a12.8,12.8,0,1,1,0-25.6Zm0,76.8H435.2a12.8,12.8,0,1,1,0,25.6H294.4a12.8,12.8,0,1,1,0-25.6Zm0,51.2H384a12.8,12.8,0,0,1,0,25.6H294.4a12.8,12.8,0,1,1,0-25.6ZM64,211.2a32,32,0,0,1,32-32H211.2a32,32,0,0,1,32,32V416a32,32,0,0,1-32,32H96a32,32,0,0,1-32-32Z"/></svg>